<svg id="Layer_1" data-name="Layer 1" xmlns="http://www.w3.org/2000/svg" viewBox="0 0 169.89 162.43"><defs><style>.cls-1,.cls-2,.cls-3{fill:none;}.cls-1,.cls-2,.cls-3,.cls-4{stroke:#000;stroke-miterlimit:10;}.cls-1{stroke-width:5px;}.cls-2{stroke-width:3px;}.cls-4,.cls-5{fill:#fff;}.cls-6{font-size:18.15px;}.cls-6,.cls-7{font-family:PaytoneOne-Regular, Paytone One;}.cls-7{font-size:15.24px;}</style></defs><circle class="cls-1" cx="103.4" cy="66.49" r="63.99"/><circle cx="103.4" cy="17.64" r="4.7"/><circle cx="58.22" cy="65.8" r="4.7"/><circle cx="103.4" cy="113.97" r="4.7"/><circle cx="148.84" cy="65.53" r="4.7"/><line class="cls-2" x1="55.23" y1="65.8" x2="151.56" y2="65.8"/><line class="cls-2" x1="103.4" y1="17.64" x2="103.4" y2="113.97"/><path class="cls-3" d="M243.85,124.75" transform="translate(-169.12 -57.62)"/><path class="cls-4" d="M272.52,131c-12,1.13-21.71-22.5-21.71-22.5s.43,30.59,21.71,32.44Z" transform="translate(-169.12 -57.62)"/><line class="cls-4" x1="103.4" y1="82.89" x2="103.4" y2="73.94"/><path class="cls-4" d="M272.52,131.56V131c12.05,1.13,21.71-22.5,21.71-22.5s-.43,30.59-21.71,32.44v-.46" transform="translate(-169.12 -57.62)"/><path class="cls-5" d="M271.58,131.68h3.27l-.76,8.47a7.71,7.71,0,0,1-4-.19Z" transform="translate(-169.12 -57.62)"/><text x="-169.12" y="-57.62"/><text class="cls-6" transform="matrix(0.95, -0.32, 0.32, 0.95, 118.56, 118.75)">R</text><text class="cls-6" transform="translate(132.07 113.92) rotate(-34.06)">A</text><text class="cls-6" transform="translate(143.56 105.79) rotate(-48.58)">T</text><text class="cls-6" transform="translate(151.02 96.8) rotate(-60.06)">I</text><text class="cls-6" transform="translate(154.93 90.18) rotate(-71.53)">X</text><text class="cls-7" transform="matrix(0.47, 0.88, -0.88, 0.47, 44.54, 79.03)">C</text><text class="cls-7" transform="translate(48.88 87.25) rotate(55.67)">O</text><text class="cls-7" transform="matrix(0.65, 0.76, -0.76, 0.65, 56.18, 97.69)">L</text><text class="cls-7" transform="matrix(0.72, 0.69, -0.69, 0.72, 61.96, 104.39)">L</text><text class="cls-7" transform="translate(68.39 110.61) rotate(35.85)">A</text><text class="cls-7" transform="translate(78.32 117.67) rotate(25.11)">B</text></svg>